<svg id="Capa_1" data-name="Capa 1" xmlns="http://www.w3.org/2000/svg" viewBox="0 0 595.28 841.89"><defs><style>.cls-1{fill:#acc99f;}.cls-2{fill:#fff;}.cls-3{fill:#36333b;}.cls-4{fill:#c7b293;}.cls-5{fill:#010101;}.cls-6{fill:none;stroke:#fff;stroke-miterlimit:10;}</style></defs><path class="cls-1" d="M446.05,213.62h-4.91c.92-.07,1.84-.12,2.77-.12H444A17.16,17.16,0,0,1,446.05,213.62Z"/><path class="cls-2" d="M362.55,478.85l-1.38-1.37c.54-.06,1.07-.1,1.62-.14C362.09,477.39,363.24,478.78,362.55,478.85Z"/><path class="cls-1" d="M403.73,212l-4.13-4.86-.5-.56C400.85,208.49,402.38,210.28,403.73,212Z"/><path class="cls-1" d="M381.6,189.85l-11.53-9c1.88,1.33,3.75,2.72,5.63,4.17S379.64,188.16,381.6,189.85Z"/><path class="cls-1" d="M384.63,192.5l-2.21-1.94.69.6Z"/><path class="cls-1" d="M341.72,165.2a141.92,141.92,0,0,0-37.46-8.76,133.37,133.37,0,0,1,20.41,3.32A128.72,128.72,0,0,1,341.72,165.2Z"/><path class="cls-1" d="M452.35,217l-1.75-1.76-3.54-1.43a12.42,12.42,0,0,1,1.7.43,6.43,6.43,0,0,1,3.53,2.65S452.33,216.94,452.35,217Z"/><path class="cls-1" d="M423.87,216.3l-1.54.38-6.28,0-4.71-.8-1.93-1-.36-.58.44.24a18.14,18.14,0,0,0,3.11,1.31,16.67,16.67,0,0,0,3.77.68A39.62,39.62,0,0,0,423.87,216.3Z"/><path class="cls-2" d="M363,477.33h-.16c-2.12-2-4.1-3.83-5.9-5.47C359,473,361.29,475.87,363,477.33Z"/><path class="cls-3" d="M287.36,356.46l-.28.14c-.07-.11-.15-.2-.22-.31Z"/><path class="cls-2" d="M359.38,472.35l-2.69-.66c-.31-.29-.61-.57-.92-.84A32.33,32.33,0,0,0,359.38,472.35Z"/><path class="cls-4" d="M396.57,457.29a17.37,17.37,0,0,1-2.16,4.49,16.84,16.84,0,0,1-2.08,2.45,25.54,25.54,0,0,0,2.2-3A30.55,30.55,0,0,0,396.57,457.29Z"/><path class="cls-2" d="M354.84,383.9l0,.48a69.48,69.48,0,0,1-14.42-7.16c-2.77-1.8-5.48-3.87-7.17-6.72s-2.17-6.61-.43-9.42c2.23-3.62,7.42-4.47,11.35-2.87s6.8,5.05,9.11,8.61a23,23,0,0,1,3.72,8.4A10.35,10.35,0,0,1,354.84,383.9Z"/><path class="cls-2" d="M429.3,307.76c-11.84,10.77-20.73,23.3-32.35,34.37-4,3.8-8.08,7.89-13.17,10.19-5.74,2.6-9.62.95-15-1.48-3.26-1.47-6.49-3-9.72-4.51-6.13-2.9-12.21-5.91-18.41-8.65-8.35-3.7-20.08-7.4-29.7-8.36-8.29-1.27-17-.74-24.4,3.07s-12.93,11.08-13.66,19.08a.62.62,0,0,1-.23-.19c-1.31-1.77-2.94-4-4.64-6a55.84,55.84,0,0,0-5.34-5.5,41.9,41.9,0,0,0-6.11-4.67,20,20,0,0,0-7.33-2.92,10.82,10.82,0,0,0-8.07,1.79,15.06,15.06,0,0,0-4.75,6.41c-.65,1.49-1.17,3-1.68,4.48-.27.8-.55,1.6-.84,2.38-1,2.53-1.71,4.8-2.3,6.93a51.79,51.79,0,0,0-2,14.43c.08,6.16.73,12.24,1.36,18.12.35,3.18.7,6.46,1,9.68l2.37,26.83c.19,2,.4,3.92.6,5.86A183.91,183.91,0,0,1,236.22,449a65.54,65.54,0,0,1-1.06,12.34c-.11.63-.27,1.27-.42,1.89-.08.36-.17.73-.24,1.05-.17.63-.35,1.24-.54,1.86-.11.36-.22.71-.3,1s-.24.64-.36,1c-.24.63-.46,1.24-.72,1.81-.14.27-.26.54-.39.82a16.8,16.8,0,0,1-.95,1.84,35,35,0,0,1-7.3,9.09,52.15,52.15,0,0,1-7.2,5.39c.86.52,1.73,1,2.6,1.56a53.69,53.69,0,0,0,6.44-4.91,37.51,37.51,0,0,0,7.87-9.75,20.22,20.22,0,0,0,1.06-2.07.47.47,0,0,0,0-.1,4.18,4.18,0,0,1-.73-3.42c.31-1.16,1.54-1.89,2.88-2.38.1-.34.2-.67.29-1s.17-.72.25-1.07c.17-.67.33-1.35.46-2A68.28,68.28,0,0,0,239,449.05a189.32,189.32,0,0,0-1.4-20.21c-.2-1.95-.41-3.9-.59-5.85l-2.33-26.81c-.25-3.25-.6-6.56-.94-9.77-.22-2.11-.44-4.25-.64-6.41,2.37,1.13,5.57.51,7.71,2.14,3.15,2.41,1.75,7.71,4.05,10.94,1.26,1.78,3.43,2.63,5.41,3.52,6.5,2.94,12.64,7.42,19.76,7.73a20.76,20.76,0,0,0,12.47-3.79,31.28,31.28,0,0,0,8.9-9.7c2.38-3.89,4.09-8.93,1.81-12.88-1.73-3-5.54-4.9-6-8.34-.25-2,.72-3.88,1.16-5.83a7.5,7.5,0,0,1,2.57-1.94,12.38,12.38,0,0,1,6.57-.47,1.74,1.74,0,0,0,1.38-.24,57.22,57.22,0,0,1,12.58,9.57c.19.19,6.89,8.06,9.22,12.11a59.61,59.61,0,0,1,5.81,14.24,90.06,90.06,0,0,1,2.42,15.5c.15,1.78.28,3.56.42,5.34.26,3.53.53,7.17,1,10.79a75.62,75.62,0,0,0,3.76,16.15,62.15,62.15,0,0,0,3.39,7.68,51.79,51.79,0,0,0,4.63,7.1,40.15,40.15,0,0,0,10.8,9.71l8.22,8.15c.54-.06,1.07-.1,1.62-.14-2.12-2-4.1-3.83-5.9-5.47l-.2-.18c-.31-.29-.61-.57-.92-.84a32.33,32.33,0,0,0,3.61,1.5,31.7,31.7,0,0,0,12.81,1.7,31.32,31.32,0,0,0,8.58-1.89,28.64,28.64,0,0,0,7.75-4.28,27,27,0,0,0,3.81-3.65,25.54,25.54,0,0,0,2.2-3,30.55,30.55,0,0,0,2-3.95q.31-.72.6-1.47a27.4,27.4,0,0,1-2.66,5.06c-2.85,4.16-7.41,6.34-11.68,8.74-3.1,1.74-6.2,1.93-9.64,2.6s-7,1-10.34-.18a3.17,3.17,0,0,1-1.41-.84l-.06-.07a3.26,3.26,0,0,1-.56-1.59c-.36-2.59.65-6.73,1.13-8.36,4.18-14,21.06-10.5,31.9-13.7.22-.06,1-.2,2-.36.18-1,.36-2,.55-3.12a41.07,41.07,0,0,0,.59-8.17,38.64,38.64,0,0,0-.41-4.11c-.18-1.47-.33-2.92-.45-4.33-.25-2.94-.37-5.87-.36-8.7A107.2,107.2,0,0,1,397,403.2c-.37-1-.83-2.05-1.29-3.33-3.47-9.64-1.53-20.53,2.55-29.66,4.65-10.41,11.93-19.37,18.11-28.94,4.88-7.54,10.67-17.34,12.8-26.73l.15-1.36ZM248.71,335.48l0,0a27.87,27.87,0,0,1-3.26,2.92c-.62.51-1.28,1.05-2,1.63-1,.89-2,1.77-3,2.62-.3.27-.5.42-.62.43a1,1,0,0,1-.56-.18,2.53,2.53,0,0,1-.55-.48c.11-.28.23-.56.35-.83a12.35,12.35,0,0,1,3.76-5.19,7.78,7.78,0,0,1,5.87-1.25l.22,0Zm29,49.66a8.06,8.06,0,0,1-.79,3.47c-1.17,2.06-3.83,2.74-6.2,2.75A18,18,0,0,1,258.49,360h0c4.25-2.73,10.57-2.73,15.14-.53C278,367,278.32,376.36,277.68,385.14Zm9.4-28.54c-.07-.11-.15-.2-.22-.31l.5.17ZM364.38,391c-3.58,13.94-17.42,24.51-31.77,24.26l-.33-.06a105.09,105.09,0,0,0-2.76-18.91,61.11,61.11,0,0,0-15.23-27.09,15.59,15.59,0,0,0-3.46-21.36c-1.59-1.2-3.42-2.1-4.78-3.55s-2.15-3.73-1.15-5.45c.87-1.48,2.72-2,4.41-2.36l.95-.18c17.7,2.21,28.36,13.18,37.56,20.26C360.51,366.31,368,377,364.38,391Z"/><path class="cls-2" d="M362.79,477.34c-.55,0-1.08.08-1.62.14l1.38,1.37C363.24,478.78,362.09,477.39,362.79,477.34Z"/><path class="cls-2" d="M323.4,155.19c-1.92,0-3.82,0-5.72.09q-7.68.22-15.2,1l.4,0,1.38.1a133.37,133.37,0,0,1,20.41,3.32,128.72,128.72,0,0,1,17.05,5.44q4.84,1.92,9.46,4.23a137.58,137.58,0,0,1,18.89,11.39c1.88,1.33,3.75,2.72,5.63,4.17s3.94,3.17,5.9,4.86l.75.65.07.06c.24.19.46.39.69.6l1.52,1.34c.79.7,1.58,1.41,2.36,2.13l2,1.88,3.42,3.31c1.92,1.91,3.64,3.63,5.33,5.37l1.36,1.43c1.75,1.87,3.28,3.66,4.63,5.42a51.67,51.67,0,0,1,3.35,4.86,133.26,133.26,0,0,1,7.16,13.54A135.87,135.87,0,0,1,420,244.79c1.63,5,2.94,9.71,4,14.38a1.22,1.22,0,0,0,.21.91,210.35,210.35,0,0,1,4.4,31.34c.38,5.67.6,11,.67,16.16v.18l0,5.42-.15,1.36-.11,1c-.07.84-.21,1.71-.35,2.55-.07.48-.15,1-.21,1.4-.24,1.34-.5,2.68-.78,4A104.69,104.69,0,0,1,422.9,339c-1.85,4.65-4.1,9.56-6.9,15-1.31,2.55-2.63,5-3.93,7.38s-2.71,4.93-4,7.46a123.89,123.89,0,0,0-6.63,15.78A110.71,110.71,0,0,0,397,403.2a107.2,107.2,0,0,0-1.21,15.49c0,2.83.11,5.76.36,8.7.12,1.41.27,2.86.45,4.33a38.64,38.64,0,0,1,.41,4.11,41.07,41.07,0,0,1-.59,8.17c-.19,1.12-.37,2.15-.55,3.12,1.29-.21,2.85-.46,3.7-.65h0c-.06.38-.12.77-.19,1.15s-.13.76-.21,1.14c-.16.85-.35,1.69-.57,2.51-.06.27-.13.54-.21.8s-.2.72-.31,1.07q-.31,1.05-.69,2.07c-.07.2-.15.4-.23.6q-.29.75-.6,1.47a17.37,17.37,0,0,1-2.16,4.49,16.84,16.84,0,0,1-2.08,2.45,27,27,0,0,1-3.81,3.65,28.64,28.64,0,0,1-7.75,4.28,31.32,31.32,0,0,1-8.58,1.89,31.7,31.7,0,0,1-12.81-1.7l-2.69-.66.2.18c2.08,1.12,4.4,4,6.06,5.46h-.16c-.7.05.45,1.44-.24,1.51l-1.38-1.37-.46,0c-8.52.83-16.81,3-25.56,2.22-10.44-.93-21.21-2.26-31.53-4.1-13.05-2.32-25.64-5.94-38.7-8.26-9.1-1.62-18.36-4.25-27.2-1.62l-.81.27c-1.34.49-2.57,1.22-2.88,2.38a4.18,4.18,0,0,0,.73,3.42c2,3,6.87,5.45,9.74,6.93,27.86,14.37,62.14,18.85,93.39,21.11.34,0,5.61.57,5.69.36-4,11.56-26.92,12.85-38.76,12.6a176.61,176.61,0,0,1-85.48-24.17c-.87-.51-1.74-1-2.6-1.56a154.72,154.72,0,0,1-35-29.28c-4.85-5.49-9.94-11.39-18.36-11.85-.31,0-.62,0-.94,0A192.67,192.67,0,0,0,323.4,531.59c106,0,191.88-84.26,191.88-188.2S429.37,155.19,323.4,155.19Zm102.34,98.07c-.82-3.08-1.76-6.24-2.81-9.44A137.25,137.25,0,0,0,417,229.13a140.44,140.44,0,0,0-7.34-13.84c-.08-.14-.17-.27-.26-.4l-.36-.58.44.24a18.14,18.14,0,0,0,3.11,1.31,16.67,16.67,0,0,0,3.77.68,39.62,39.62,0,0,0,7.5-.24l.87-.1c2.25-.29,4.55-.72,7-1.18l2.25-.42a70.75,70.75,0,0,1,7.16-1c.92-.07,1.84-.12,2.77-.12H444a17.16,17.16,0,0,1,2.07.13c.35,0,.68.1,1,.16a12.42,12.42,0,0,1,1.7.43,6.43,6.43,0,0,1,3.53,2.65s0,.08.06.11a6.23,6.23,0,0,1,.57,4.21h0a10.31,10.31,0,0,1-1.94,4.26,28.39,28.39,0,0,1-3.37,3.64c-1.07,1-2.21,2-3.72,3.32l-1.43,1.25c-2,1.71-3.84,3.33-5.57,5a63,63,0,0,0-5.71,6A36.6,36.6,0,0,0,425.74,253.26Z"/><path class="cls-2" d="M311.25,262.38c0,.62-.14,1.22-.21,1.8,0,.29-.08.57-.11.85l-.18.8q-.17.8-.33,1.5l-.42,1.33a17.89,17.89,0,0,1-.84,2.18,11.44,11.44,0,0,1-.76,1.53c-.46.81-.72,1.21-.77,1.18a5.29,5.29,0,0,1,.48-1.32,13.11,13.11,0,0,0,.61-1.56,19,19,0,0,0,.68-2.18c.11-.42.23-.86.34-1.32s.17-1,.27-1.48c0-.25.09-.52.13-.78s.06-.55.08-.83c0-.57.13-1.15.14-1.76a31.51,31.51,0,0,0-4.42-17.43,28.47,28.47,0,0,0-7.64-8.35,32.17,32.17,0,0,0-11.36-5.27,35.35,35.35,0,0,0-13.45-.67A34.15,34.15,0,0,0,260.8,235a26.94,26.94,0,0,0-12.58,29.07,24.88,24.88,0,0,0,1.29,4.15,26.36,26.36,0,0,0,1.7,3.49,27.46,27.46,0,0,0,3.7,5c2.37,2.51,4,3.52,4,3.65a5.2,5.2,0,0,1-1.25-.67,23.78,23.78,0,0,1-3.14-2.54,26.11,26.11,0,0,1-4-5,25.24,25.24,0,0,1-1.87-3.56,25.9,25.9,0,0,1-1.46-4.28,27.58,27.58,0,0,1-.56-10.33A27.68,27.68,0,0,1,260,233.7a35.85,35.85,0,0,1,39.19,1.66,29.52,29.52,0,0,1,7.9,8.86,31.56,31.56,0,0,1,3.64,9.67A30.54,30.54,0,0,1,311.25,262.38Z"/><path class="cls-2" d="M321.47,450.32a15.92,15.92,0,0,1-7.46,7.62,16.44,16.44,0,0,1-4.88,1.6,19.1,19.1,0,0,1-4.88.15,25.25,25.25,0,0,1-8.57-2.46,34.77,34.77,0,0,1-6.5-4.16,64.9,64.9,0,0,1-7.92-7.72,18.51,18.51,0,0,1-2.52-3.16,21.38,21.38,0,0,1,3,2.74,85.5,85.5,0,0,0,8.16,7.25,34.7,34.7,0,0,0,6.37,3.85,24.41,24.41,0,0,0,8.13,2.2,18.12,18.12,0,0,0,4.52-.19,15,15,0,0,0,4.41-1.49,14.48,14.48,0,0,0,6.72-6.88,13.37,13.37,0,0,0,.33-9.54,26.58,26.58,0,0,0-4.52-8.14,64.46,64.46,0,0,0-11.64-11.09A72.64,72.64,0,0,0,295,415a27,27,0,0,1-3.53-2,15.24,15.24,0,0,1,3.81,1.4,59.18,59.18,0,0,1,9.59,5.49A61.58,61.58,0,0,1,317,431.08a27.21,27.21,0,0,1,4.85,8.58A14.79,14.79,0,0,1,321.47,450.32Z"/><path class="cls-2" d="M236.05,548.39l-1.74-.08-2.62-.08c-.88,2.4-2,5.58-3.46,9.49l-4.83,13.56-12.57,35.78c-.12-.39-.25-.79-.38-1.19l-.94-2.82c-.78-2.35-1.58-4.76-2.4-7.2q-2.46-7.35-5.09-15.22c-3.92-11.69-8.1-24.14-12.51-37.24l-20.95,62c-6.23-18.67-12.75-38.24-19.49-58.44h-9l4.56,13.65c8.27,24.66,16.29,48.61,23.94,71.46,7.4-22.27,14.44-43.45,21-63.16,7.82,22.78,14.95,43.54,21.18,61.67l12-36,8.16-24.81c2.22-6.81,3.92-12.11,5-15.71.56-1.81,1-3.18,1.24-4.12a4.55,4.55,0,0,0,.31-1.43A4.42,4.42,0,0,0,236.05,548.39Z"/><path class="cls-2" d="M270.33,555.81l27.08,0v-8.48l-49.85.11c.06,15.59.13,30.22.18,43.63s.19,25.43.27,36l20.66-.22,14.72-.25c4-.08,7.13-.17,9.24-.26a13.89,13.89,0,0,0,3.2-.29c.07,0,.13-.48.19-1.41q0-.7.09-1.74c0-.8.06-1.73.1-2.78L289,620l-9.27-.17-24.26-.3c0-5.77.11-12,.17-18.76l36.47.2c0-2.68,0-5.4,0-8.13L256,592.69c0-11.85,0-24.19.05-36.89Z"/><path class="cls-2" d="M340.1,585.73l-1.43-1.1c-.49-.34-1-.65-1.51-1-1-.61-2-1.15-3-1.73l-12.11-7-1.54-.9-.78-.45c-.26-.15-.53-.3-.73-.44a9.28,9.28,0,0,1-2.3-2,9.61,9.61,0,0,1-2.11-5.78,9.21,9.21,0,0,1,7.24-9.25,6.12,6.12,0,0,1,.82-.14,6,6,0,0,1,.84-.07l.41,0h1.46a9.69,9.69,0,0,1,3.29.51,9.28,9.28,0,0,1,2.86,1.57,8.35,8.35,0,0,1,1.17,1.13l.26.31.51.74c.35.51.69,1.07,1,1.61l4.25-2.49,1.22-.72c.5-.28.95-.58,1.42-.86l.36-.22.08-.06s0-.05,0-.08l-.12-.17-.45-.71-.89-1.4-.46-.63c-.09-.12-.18-.25-.28-.36l-.6-.71a17.88,17.88,0,0,0-1.29-1.32,17.27,17.27,0,0,0-2.94-2.19,17.83,17.83,0,0,0-6.8-2.37,26.15,26.15,0,0,0-3.47-.15c-.52,0-1.13,0-1.72,0a17,17,0,0,0-1.75.2,17.81,17.81,0,0,0-9.42,30.39,18.72,18.72,0,0,0,2.32,1.86c.41.26.84.55,1.24.78l1.17.66,4.61,2.61,8.74,4.94,2.08,1.17,1,.57.93.57a16.16,16.16,0,0,1,3.17,2.74,15.81,15.81,0,0,1,3.49,13.92,16.21,16.21,0,0,1-6.1,9.32,17,17,0,0,1-6.58,3l-1.09.21-.8.12c-.43.07-.65.13-.65.18a26.36,26.36,0,0,0-2.91-.54,16.72,16.72,0,0,1-7.34-3.6c-.35-.27-.67-.6-1-.92l-.49-.51-.24-.27-.28-.33c-.24-.28-.47-.58-.71-.88l-.36-.45-.09-.12-.05,0s0,0-.05,0l-.24.17-1.79,1.33-1.39,1L306.12,617c.26.35.56.72.84,1.09l.44.56c.14.17.34.39.43.49.42.5.89,1,1.37,1.47a22.85,22.85,0,0,0,7.29,4.78,22.47,22.47,0,0,0,9.65,1.67,23.37,23.37,0,0,0,2.62-.23c.45-.06.88-.17,1.32-.25a9.77,9.77,0,0,0,1.32-.32,22,22,0,0,0,5.16-2.1,22.69,22.69,0,0,0,4.69-3.44,26.66,26.66,0,0,0,2.05-2.19,26.06,26.06,0,0,0,1.76-2.5,23.47,23.47,0,0,0-5-30.28Z"/><path class="cls-2" d="M379.82,555.81l27.08,0c0-2.93,0-5.71,0-8.48l-49.85.11c.07,15.59.13,30.22.19,43.63s.18,25.43.26,36l20.66-.22,14.72-.25c4-.08,7.14-.17,9.24-.26a13.94,13.94,0,0,0,3.21-.29,4.54,4.54,0,0,0,.19-1.41q0-.7.09-1.74c0-.8,0-1.73.09-2.78l-7.18-.17-9.28-.17L365,619.5c0-5.77.11-12,.17-18.76l36.47.2c0-2.68,0-5.4,0-8.13l-36.15-.12c0-11.85,0-24.19.06-36.89Z"/><path class="cls-2" d="M463.4,605.92c-17.7-22.86-33.93-43.8-47.88-61.81.07,11,.13,21.26.19,30.64.08,8.27.15,15.77.21,22.41s.17,12.42.24,17.23c.11,5,.19,8.92.26,11.8l2.65-.08,1.67-.09a4.05,4.05,0,0,0,1.35-.18,22.22,22.22,0,0,0,.31-4.3c.1-2.82.2-7,.29-12.35s.17-11.94.27-19.58c.07-6.69.15-14.31.23-22.75l.77,1,2.38,3.15,5.4,7.11,11.54,15.19,28.46,37.29c0-25.91.07-54,.11-83.47h-8.51C463.36,567.56,463.38,587.26,463.4,605.92Z"/><path class="cls-2" d="M519.08,591a23.16,23.16,0,0,0-4.67-5.28l-1.42-1.1c-.5-.34-1-.65-1.52-1-1-.61-2-1.15-3-1.73l-12.1-7-1.55-.9-.78-.45c-.25-.15-.53-.3-.72-.44a9.32,9.32,0,0,1-2.31-2,9.53,9.53,0,0,1-2.1-5.78,9.32,9.32,0,0,1,1.92-5.9,9.19,9.19,0,0,1,5.32-3.35,5.62,5.62,0,0,1,.82-.14,5.69,5.69,0,0,1,.83-.07l.42,0h1.45a9.69,9.69,0,0,1,3.29.51,9.28,9.28,0,0,1,2.86,1.57A8.35,8.35,0,0,1,507,559l.27.31.5.74c.36.51.7,1.07,1,1.61l4.25-2.49,1.22-.72c.5-.28,1-.58,1.43-.86l.35-.22.09-.06s0-.05,0-.08l-.11-.17-.45-.71-.9-1.4-.46-.63c-.09-.12-.18-.25-.28-.36l-.59-.71a18,18,0,0,0-1.3-1.32,17.27,17.27,0,0,0-2.94-2.19,17.83,17.83,0,0,0-6.8-2.37,26.15,26.15,0,0,0-3.47-.15c-.52,0-1.13,0-1.72,0a17,17,0,0,0-1.75.2,17.91,17.91,0,0,0-14.28,13,18.2,18.2,0,0,0-.49,6.43A17.66,17.66,0,0,0,486,577.88a19.49,19.49,0,0,0,2.32,1.86c.41.26.85.55,1.24.78l1.18.66,4.6,2.61,8.74,4.94,2.08,1.17,1,.57.92.57a16.16,16.16,0,0,1,3.17,2.74,15.81,15.81,0,0,1,3.49,13.92,16.16,16.16,0,0,1-6.1,9.32,17,17,0,0,1-6.58,3l-1.09.21-.8.12c-.43.07-.65.13-.65.18a25.78,25.78,0,0,0-2.9-.54,16.79,16.79,0,0,1-7.35-3.6c-.35-.27-.67-.6-1-.92l-.5-.51-.24-.27-.28-.33c-.24-.28-.47-.58-.71-.88l-.36-.45-.09-.12,0,0s0,0-.06,0l-.23.17-1.8,1.33-1.39,1L480.43,617c.26.35.56.72.85,1.09l.44.56c.13.17.33.39.42.49.42.5.89,1,1.37,1.47a23,23,0,0,0,7.29,4.78,22.47,22.47,0,0,0,9.65,1.67,23.75,23.75,0,0,0,2.63-.23c.44-.06.87-.17,1.32-.25a10.56,10.56,0,0,0,1.32-.32,22.13,22.13,0,0,0,5.16-2.1,22.37,22.37,0,0,0,4.68-3.44,25,25,0,0,0,2.05-2.19,26.06,26.06,0,0,0,1.76-2.5,23.37,23.37,0,0,0-.29-25Z"/><path class="cls-2" d="M265.57,367.11c.12.11-.61.88-1.36,2.34a11.47,11.47,0,0,0-1.25,6.12,11.31,11.31,0,0,0,2.32,5.81c1,1.31,1.84,1.94,1.75,2.07s-1.08-.34-2.29-1.61a10.43,10.43,0,0,1-2.77-6.18,10.54,10.54,0,0,1,1.63-6.57C264.57,367.63,265.5,367,265.57,367.11Z"/><path class="cls-5" d="M351.52,375.39c-.07,0-.11-.28-.36-.67a2.78,2.78,0,0,0-1.55-1.08,25.24,25.24,0,0,0-3.08-.38,8.86,8.86,0,0,1-3.75-1.53,8.75,8.75,0,0,1-2.7-3,8.37,8.37,0,0,1-1-3.15c-.19-1.88.27-3,.37-3s0,1.14.32,2.85a8.81,8.81,0,0,0,3.55,5.47,8.7,8.7,0,0,0,3.34,1.44,16.23,16.23,0,0,1,3.16.62,2.92,2.92,0,0,1,1.66,1.58C351.7,375.09,351.58,375.4,351.52,375.39Z"/><path class="cls-6" d="M322.55,155.35a193.76,193.76,0,0,0-19.67,1c-96,9.69-170.83,89.5-170.83,186.51A184.51,184.51,0,0,0,163.42,446a191.13,191.13,0,0,0,159.13,84.38c105.21,0,190.5-84,190.5-187.5S427.76,155.35,322.55,155.35ZM429.07,315.58c-.07.84-.21,1.71-.35,2.55-.07.48-.15,1-.21,1.4-.24,1.34-.5,2.68-.78,4A104.69,104.69,0,0,1,422.9,339c-1.85,4.65-4.1,9.56-6.9,15-1.31,2.55-2.63,5-3.93,7.38s-2.71,4.93-4,7.46a123.89,123.89,0,0,0-6.63,15.78A110.71,110.71,0,0,0,397,403.2c-.37-1-.83-2.05-1.29-3.33-3.47-9.64-1.53-20.53,2.55-29.66,4.65-10.41,11.93-19.37,18.11-28.94,4.88-7.54,10.67-17.34,12.8-26.73Z"/></svg>